<?xml version="1.0"?>
<svg xmlns="http://www.w3.org/2000/svg" xmlns:xlink="http://www.w3.org/1999/xlink" xmlns:svgjs="http://svgjs.com/svgjs" version="1.1" width="100%" height="100%" x="0" y="0" viewBox="0 0 58 58" preserveAspectRatio="xMinYMin slice"  style="enable-background:new 0 0 512 512" xml:space="preserve" class=""><g><link type="text/css" rel="stylesheet" id="dark-mode-general-link"/><link type="text/css" rel="stylesheet" id="dark-mode-custom-link"/><style lang="en" type="text/css" id="dark-mode-custom-style"/><g xmlns="http://www.w3.org/2000/svg" id="Page-1" fill="none" fill-rule="evenodd"><g id="040---Paw" fill-rule="nonzero"><path id="Shape" d="m50.057 58c1.0591682.00257 1.9345566-.8253337 1.991-1.883.568-11.169 5.952-20.592 5.952-29.117 0-7-2-10-4-11-1.8761818-.8586977-3.9467369-1.2037902-6-1 2-8-4-15-11-15s-8 5-8 5-1-5-8-5-13 7-11 15c-2.05326314-.2037902-4.12381819.1413023-6 1-2 1-4 4-4 11 0 8.525 5.384 17.948 5.952 29.117.05644342 1.0576663.93183179 1.88557 1.991 1.883z" fill="#e19974" data-original="#a56a43" style="" class=""/><path id="Shape" d="m58 27c0 8.53-5.38 17.95-5.95 29.12-.0633247 1.0536-.9345041 1.8766238-1.99 1.88h-21.06v-53s1-5 8-5 13 7 11 15c2.0531861-.2014832 4.1231428.1435096 6 1 2 1 4 4 4 11z" fill="#e19974" data-original="#cb8252" style="" class=""/><path id="Shape" d="m29 29v22c-4 0-6 3-10 3s-7-2-5-10 11-15 15-15z" fill="#1b2737" data-original="#2c3e50" style="" class=""/><path id="Shape" d="m39 54c-4 0-6-3-10-3v-22c4 0 13 7 15 15s-1 10-5 10z" fill="#1b2737" data-original="#35495e" style="" class=""/><ellipse id="Oval" cx="21" cy="15" fill="#1b2737" rx="6" ry="10" data-original="#2c3e50" style="" class=""/><ellipse id="Oval" cx="9.599" cy="27.405" fill="#1b2737" rx="5" ry="8" transform="matrix(.915 -.403 .403 .915 -10.24 6.202)" data-original="#2c3e50" style="" class=""/><g fill="#35495e"><ellipse id="Oval" cx="37" cy="15" rx="6" ry="10" fill="#1b2737" data-original="#35495e" style="" class=""/><ellipse id="Oval" cx="48.401" cy="27.405" rx="8" ry="5" transform="matrix(.403 -.915 .915 .403 3.799 60.637)" fill="#1b2737" data-original="#35495e" style="" class=""/></g></g></g></g></svg>
